<svg width="96" height="96" viewBox="0 0 96 96" xmlns="http://www.w3.org/2000/svg">
  <defs>
    <linearGradient id="amberIdle" x1="0%" y1="0%" x2="0%" y2="100%">
      <stop offset="0%" stop-color="#e8b24a"/>
      <stop offset="100%" stop-color="#b5823f"/>
    </linearGradient>
    <linearGradient id="glassIdle" x1="0%" y1="0%" x2="100%" y2="0%">
      <stop offset="0%" stop-color="#ffffff" stop-opacity="0.25"/>
      <stop offset="15%" stop-color="#ffffff" stop-opacity="0.05"/>
      <stop offset="100%" stop-color="#ffffff" stop-opacity="0"/>
    </linearGradient>
    <linearGradient id="chromeTapIdle" x1="0%" y1="0%" x2="0%" y2="100%">
      <stop offset="0%" stop-color="#c7cad0"/>
      <stop offset="100%" stop-color="#5a626e"/>
    </linearGradient>
  </defs>
  <ellipse cx="42" cy="86" rx="26" ry="4" fill="#000" opacity="0.3"/>
  <!-- tap column -->
  <rect x="66" y="14" width="8" height="40" rx="3" fill="url(#chromeTapIdle)"/>
  <rect x="58" y="20" width="24" height="9" rx="3" fill="url(#chromeTapIdle)"/>
  <circle cx="70" cy="16" r="6" fill="url(#chromeTapIdle)"/>
  <!-- mug -->
  <path d="M18 40 h44 v34 a10 10 0 0 1 -10 10 h-24 a10 10 0 0 1 -10 -10 Z" fill="#e7e5d8" opacity="0.14" stroke="#e7e5d8" stroke-width="2"/>
  <path d="M22 46 h36 v28 a8 8 0 0 1 -8 8 h-20 a8 8 0 0 1 -8 -8 Z" fill="url(#amberIdle)"/>
  <path d="M22 46 h36 v28 a8 8 0 0 1 -8 8 h-20 a8 8 0 0 1 -8 -8 Z" fill="url(#glassIdle)"/>
  <!-- handle -->
  <path d="M62 50 q14 2 14 16 q0 14 -14 16" fill="none" stroke="#e7e5d8" stroke-width="5" opacity="0.5" stroke-linecap="round"/>
  <!-- foam -->
  <ellipse cx="40" cy="46" rx="19" ry="7" fill="#f7f3e6"/>
  <circle cx="30" cy="42" r="4" fill="#f7f3e6"/>
  <circle cx="48" cy="41" r="3.4" fill="#f7f3e6"/>
</svg>
